<?xml version="1.0" encoding="UTF-8"?><svg id="Layer_2" xmlns="http://www.w3.org/2000/svg" viewBox="0 0 908.97 97.5"><defs><style>.cls-1{fill:#fff;stroke-width:0px;}</style></defs><g id="Layer_1-2"><polygon class="cls-1" points="0 76.14 57.98 4.95 75.43 22.41 92.61 5.23 150.87 76.02 129.53 97.36 92.54 54.14 75.43 71.25 58.26 54.08 21.42 97.24 0 76.14"/><path class="cls-1" d="M140.72,97.36l21-21.36h25.07c8.69,0,15.73-7.05,15.72-15.74l-.04-22c0-8.68-7.04-15.71-15.72-15.71h-17.36c-8.68,0-15.72,7.04-15.72,15.72l.02,26.44-23.32-28.99v-.94c0-9.15,3.64-17.93,10.11-24.4h0c6.49-6.49,15.29-10.12,24.47-10.11l28.29.06c9.13.02,17.87,3.65,24.33,10.11l.08.08c6.47,6.47,10.11,15.25,10.11,24.4v27.74c0,9.15-3.64,17.93-10.11,24.4l-.09.09c-6.46,6.46-15.21,10.09-24.34,10.11l-52.48.09Z"/><polygon class="cls-1" points="218.9 97.32 316.11 .12 349.57 25.72 349.57 66.82 318.86 97.32 318.86 36.57 258.02 97.41 218.9 97.32"/><polygon class="cls-1" points="333.54 97.32 430.75 .12 464.21 25.72 464.21 66.82 433.5 97.32 433.5 36.57 372.66 97.41 333.54 97.32"/><polygon class="cls-1" points="582.82 97.47 595.5 84.79 545.82 35.12 496.15 84.79 508.79 97.44 448.55 97.41 545.78 .19 643.09 97.5 582.82 97.47"/><path class="cls-1" d="M557.58.05h87.85s24.3-.05,24.3,23.96-23.82,24.84-23.82,24.84l-40.38-.88-18.75-18.75,59.13,1.13s5.38-.61,5.38-5.86c0-5.52-5.86-5.79-5.86-5.79l-70.05-.89L557.58.05Z"/><path class="cls-1" d="M654.98,97.41h96.93s29.31,0,29.31-29.31-29.31-29.31-29.31-29.31h-44.09s-9.43,0-9.43-9.43c0-9.43,9.43-9.43,9.43-9.43h83.59l19.92-19.92h-103.52s-29.36,0-29.33,29.33c.02,29.33,29.33,29.33,29.33,29.33h44.09s9.43,0,9.43,9.43-9.43,9.43-9.43,9.43h-116.8l19.88,19.88Z"/><polygon class="cls-1" points="822.18 .19 908.97 .19 889.15 20.01 803.62 20.01 822.18 .19"/><path class="cls-1" d="M787.84,77.68h90.96l-19.82,19.82h-85.54c2-1.29,6.01-4.27,9.2-9,2.96-4.39,5.19-10.82,5.19-10.82Z"/><path class="cls-1" d="M773.23,38.94h77.68l-19.82,19.82h-44.99s-1.65-5.23-3.99-9.6c-2.85-5.31-8.88-10.21-8.88-10.21Z"/></g></svg>